<?xml version="1.0" encoding="UTF-8"?>
<svg id="Layer_1" data-name="Layer 1" xmlns="http://www.w3.org/2000/svg" viewBox="0 0 45.36 30.8">
  <defs>
    <style>
      .cls-1, .cls-2 {
        fill: none;
        stroke: #231f20;
        stroke-miterlimit: 10;
        stroke-width: 3px;
      }

      .cls-2 {
        stroke-linecap: round;
      }
    </style>
  </defs>
  <path class="cls-1" d="M35.86,1.5H9.5C5.08,1.5,1.5,5.29,1.5,9.96v4.68c0,4.67,3.58,8.46,8,8.46h14.7s.08.01.11.04l6.73,5.78c.81.69,2.02.4,2.45-.6l2.22-5.11c.03-.06.09-.1.15-.1h0c4.42,0,8-3.79,8-8.46v-4.68c0-4.67-3.58-8.46-8-8.46Z"/>
  <line class="cls-2" x1="8.02" y1="7.97" x2="27.42" y2="7.97"/>
  <line class="cls-2" x1="8.02" y1="12.34" x2="38.41" y2="12.34"/>
  <line class="cls-2" x1="8.02" y1="16.72" x2="33.24" y2="16.72"/>
</svg>